<?xml version="1.0" encoding="UTF-8" standalone="no"?>
<!-- Created with Inkscape (http://www.inkscape.org/) -->

<svg
   width="793.70081"
   height="1122.5197"
   viewBox="0 0 210 297"
   version="1.1"
   id="svg5"
   inkscape:version="1.1-rc (52f87ab, 2021-05-02)"
   sodipodi:docname="gruv.svg"
   xmlns:inkscape="http://www.inkscape.org/namespaces/inkscape"
   xmlns:sodipodi="http://sodipodi.sourceforge.net/DTD/sodipodi-0.dtd"
   xmlns="http://www.w3.org/2000/svg"
   xmlns:svg="http://www.w3.org/2000/svg">
  <sodipodi:namedview
     id="namedview7"
     pagecolor="#ffffff"
     bordercolor="#666666"
     borderopacity="1.0"
     objecttolerance="10.0"
     gridtolerance="10.0"
     guidetolerance="10.0"
     inkscape:pageshadow="2"
     inkscape:pageopacity="0.0"
     inkscape:pagecheckerboard="0"
     inkscape:document-units="mm"
     showgrid="false"
     showborder="false"
     units="px"
     inkscape:object-paths="true"
     inkscape:zoom="0.17608349"
     inkscape:cx="3222.903"
     inkscape:cy="1124.4666"
     inkscape:window-width="1366"
     inkscape:window-height="750"
     inkscape:window-x="0"
     inkscape:window-y="0"
     inkscape:window-maximized="0"
     inkscape:current-layer="layer1" />
  <defs
     id="defs2" />
  <g
     inkscape:label="Layer 1"
     inkscape:groupmode="layer"
     id="layer1">
    <rect
       style="fill:#282828;fill-opacity:1;stroke:none;stroke-width:2.36372"
       id="rect48360"
       width="361.42081"
       height="203.2"
       x="979.72137"
       y="52.478291"
       inkscape:export-xdpi="192.00003"
       inkscape:export-ydpi="192.00003" />
    <g
       id="g48331"
       transform="matrix(0,0.35912729,-0.8098265,0,1471.6989,62.478419)">
      <g
         id="g57558"
         transform="matrix(1.7318925,0,0,1,8.5662634,0)">
        <rect
           style="fill:#d79921;fill-opacity:1;stroke:none;stroke-width:12.8513"
           id="rect31"
           width="326.70395"
           height="11.744093"
           x="-21.024343"
           y="252.97276" />
        <rect
           style="fill:#cc241d;fill-opacity:1;stroke:none;stroke-width:12.8513"
           id="rect11708"
           width="326.70395"
           height="11.744093"
           x="-21.024343"
           y="264.71686" />
        <rect
           style="fill:#458588;fill-opacity:1;stroke:none;stroke-width:12.8513"
           id="rect35660"
           width="326.70395"
           height="11.744093"
           x="-21.024343"
           y="241.22867" />
        <rect
           style="fill:#689d6a;fill-opacity:1;stroke:none;stroke-width:12.8513"
           id="rect41202"
           width="326.70395"
           height="11.744093"
           x="-21.024357"
           y="229.48457" />
      </g>
    </g>
    <g
       id="g141026"
       transform="matrix(0.63543341,0,0,0.63543341,436.71368,40.527961)">
      <path
         d="m 1315.8186,137.17424 c -3.2773,0.45999 -63.3895,75.93062 -63.3895,75.93062 0,0 4.3337,1.25451 14.1871,2.70709 3.1911,-2.53101 48.0813,-79.67213 49.3749,-78.57169 -0.023,-0.031 -0.06,-0.0425 -0.1125,-0.0353 z"
         style="fill:#ebdbb2;fill-opacity:1;stroke:#282828;stroke-width:1.27435;stroke-opacity:1"
         inkscape:connector-curvature="0"
         id="path48317" />
      <path
         id="path48315"
         style="fill:#ebdbb2;fill-opacity:1;stroke:#282828;stroke-width:4.81644;stroke-opacity:1"
         d="m 4973.1719,518.45312 0.082,0.24219 c 0.094,0.0972 0.2408,0.25321 0.3359,0.35157 -0.1196,-0.17201 -0.3006,-0.4248 -0.4179,-0.59376 z m 0.4179,0.59376 c 0.019,0.0279 0.049,0.0678 0.068,0.0957 -8.2531,-0.40297 -182.9106,290.86188 -185.6855,295.49023 -1.0708,0.0938 -1.5876,0.28662 -1.4141,0.60938 -16.2985,27.2841 -29.2539,49.24609 -29.2539,49.24609 0,0 175.2039,8.0436 310.4785,-10.56445 190.1768,-26.04734 -32.3852,-270.59689 -91.5391,-332.09571 -0.6782,-0.92097 -1.5975,-2.1777 -2.2187,-3.02148 -0.061,-0.0593 -0.1256,-0.0907 -0.2012,-0.10352 l -0.125,0.43555 c -0.01,-9.2e-4 -0.014,0.003 -0.02,0.002 -0.025,-0.0263 -0.064,-0.0675 -0.09,-0.0937 z"
         transform="scale(0.26458333)" />
    </g>
    <rect
       style="fill:#282828;fill-opacity:1;stroke:none;stroke-width:2.36372"
       id="rect141282"
       width="361.42081"
       height="203.2"
       x="975.99438"
       y="350.49823"
       inkscape:export-xdpi="192.00003"
       inkscape:export-ydpi="192.00003" />
    <g
       id="g141294"
       transform="matrix(0.63876021,0,0,0.8098265,993.78107,247.23418)">
      <g
         id="g141292"
         transform="matrix(1.7318925,0,0,1,8.5662634,0)">
        <rect
           style="fill:#d79921;fill-opacity:1;stroke:none;stroke-width:12.8513"
           id="rect141284"
           width="326.70395"
           height="11.744093"
           x="-21.024343"
           y="252.97276" />
        <rect
           style="fill:#cc241d;fill-opacity:1;stroke:none;stroke-width:12.8513"
           id="rect141286"
           width="326.70395"
           height="11.744093"
           x="-21.024343"
           y="264.71686" />
        <rect
           style="fill:#458588;fill-opacity:1;stroke:none;stroke-width:12.8513"
           id="rect141288"
           width="326.70395"
           height="11.744093"
           x="-21.024343"
           y="241.22867" />
        <rect
           style="fill:#689d6a;fill-opacity:1;stroke:none;stroke-width:12.8513"
           id="rect141290"
           width="326.70395"
           height="11.744093"
           x="-21.024357"
           y="229.48457" />
      </g>
    </g>
    <g
       id="g141300"
       transform="matrix(0.63543341,0,0,0.63543341,326.58358,335.70564)">
      <path
         d="m 1315.8186,137.17424 c -3.2773,0.45999 -63.3895,75.93062 -63.3895,75.93062 0,0 4.3337,1.25451 14.1871,2.70709 3.1911,-2.53101 48.0813,-79.67213 49.3749,-78.57169 -0.023,-0.031 -0.06,-0.0425 -0.1125,-0.0353 z"
         style="fill:#ebdbb2;fill-opacity:1;stroke:#282828;stroke-width:1.27435;stroke-opacity:1"
         inkscape:connector-curvature="0"
         id="path141296" />
      <path
         id="path141298"
         style="fill:#ebdbb2;fill-opacity:1;stroke:#282828;stroke-width:4.81644;stroke-opacity:1"
         d="m 4973.1719,518.45312 0.082,0.24219 c 0.094,0.0972 0.2408,0.25321 0.3359,0.35157 -0.1196,-0.17201 -0.3006,-0.4248 -0.4179,-0.59376 z m 0.4179,0.59376 c 0.019,0.0279 0.049,0.0678 0.068,0.0957 -8.2531,-0.40297 -182.9106,290.86188 -185.6855,295.49023 -1.0708,0.0938 -1.5876,0.28662 -1.4141,0.60938 -16.2985,27.2841 -29.2539,49.24609 -29.2539,49.24609 0,0 175.2039,8.0436 310.4785,-10.56445 190.1768,-26.04734 -32.3852,-270.59689 -91.5391,-332.09571 -0.6782,-0.92097 -1.5975,-2.1777 -2.2187,-3.02148 -0.061,-0.0593 -0.1256,-0.0907 -0.2012,-0.10352 l -0.125,0.43555 c -0.01,-9.2e-4 -0.014,0.003 -0.02,0.002 -0.025,-0.0263 -0.064,-0.0675 -0.09,-0.0937 z"
         transform="scale(0.26458333)" />
    </g>
  </g>
</svg>
