<?xml version="1.0" encoding="UTF-8" standalone="no"?>
<svg
   height="320"
   width="1000"
   version="1.1"
   id="svg102"
   sodipodi:docname="Linux_Mint_Official_Logo.svg"
   inkscape:version="1.1-rc (52f87ab, 2021-05-02)"
   xmlns:inkscape="http://www.inkscape.org/namespaces/inkscape"
   xmlns:sodipodi="http://sodipodi.sourceforge.net/DTD/sodipodi-0.dtd"
   xmlns="http://www.w3.org/2000/svg"
   xmlns:svg="http://www.w3.org/2000/svg">
  <defs
     id="defs106" />
  <sodipodi:namedview
     id="namedview104"
     pagecolor="#ffffff"
     bordercolor="#666666"
     borderopacity="1.0"
     objecttolerance="10.0"
     gridtolerance="10.0"
     guidetolerance="10.0"
     inkscape:pageshadow="2"
     inkscape:pageopacity="0.0"
     inkscape:pagecheckerboard="0"
     showgrid="false"
     showborder="false"
     inkscape:zoom="0.41110724"
     inkscape:cx="645.81689"
     inkscape:cy="321.08411"
     inkscape:window-width="1366"
     inkscape:window-height="768"
     inkscape:window-x="0"
     inkscape:window-y="0"
     inkscape:window-maximized="1"
     inkscape:current-layer="svg102" />
  <filter
     id="a"
     color-interpolation-filters="sRGB"
     x="-0.01064269"
     y="-0.013754146"
     width="1.0212854"
     height="1.0275083">
    <feGaussianBlur
       stdDeviation=".400625"
       id="feGaussianBlur2" />
  </filter>
  <filter
     id="b"
     color-interpolation-filters="sRGB"
     x="-0.0058648717"
     y="-0.0061415008"
     width="1.0117297"
     height="1.012283">
    <feGaussianBlur
       stdDeviation=".15992437"
       id="feGaussianBlur5" />
  </filter>
  <linearGradient
     id="c"
     gradientUnits="userSpaceOnUse"
     x1="70.49"
     x2="113.64"
     y1="496.39"
     y2="455.88">
    <stop
       offset="0"
       stop-color="#3d3d3d"
       id="stop8" />
    <stop
       offset="1"
       stop-opacity=".114"
       id="stop10" />
  </linearGradient>
  <filter
     id="d"
     color-interpolation-filters="sRGB"
     x="-0.027130547"
     y="-0.38786164"
     width="1.0542611"
     height="1.7757233">
    <feGaussianBlur
       stdDeviation="2.7119931"
       id="feGaussianBlur13" />
  </filter>
  <linearGradient
     id="e"
     gradientUnits="userSpaceOnUse"
     x1="263.39"
     x2="323.41"
     y1="356.97"
     y2="407.64"
     gradientTransform="matrix(2.4992069,0,0,2.4992069,869.68473,-432.8449)">
    <stop
       offset="0"
       stop-color="#c7f994"
       id="stop16" />
    <stop
       offset="1"
       stop-color="#87cf3e"
       id="stop18" />
  </linearGradient>
  <filter
     id="f"
     color-interpolation-filters="sRGB"
     x="-0.03413678"
     y="-0.038078303"
     width="1.0682736"
     height="1.0761566">
    <feGaussianBlur
       stdDeviation="1.6284922"
       id="feGaussianBlur21" />
  </filter>
  <rect
     style="fill:#1c241c;stroke-width:62.6728"
     id="rect511"
     width="1366"
     height="768"
     x="512.60504"
     y="-10.236624"
     inkscape:export-xdpi="96"
     inkscape:export-ydpi="96" />
  <text
     fill="#fff"
     font-family="Skia"
     font-size="19.756"
     transform="matrix(1.14834 0 0 .87082 -18.77 -2.12)"
     x="342.64"
     y="980.05"
     id="text26"><tspan
       x="342.64"
       y="980.05"
       id="tspan24">freedom for the masses</tspan></text>
  <path
     d="m 331.79,510.933 c -21.2901,0 -39.7658,-16.1399 -39.7658,-37.411 l -0.0191,-21.9923 v -6.58604 h -13.4978 v -36.6513 l 56.9204,0.26806 17.8056,0.0383 c 21.3093,0 39.7658,16.1207 39.7658,37.4109 v 64.9233 h -61.209 z"
     fill-rule="evenodd"
     filter="url(#f)"
     opacity="0.26"
     transform="matrix(2.6064978,0,0,2.6064978,752.59688,-657.82351)"
     id="path82" />
  <path
     d="M 1756.4658,629.98032 V 506.40653 c 0,-41.28464 -36.205,-74.75077 -80.8763,-74.75077 h -46.3646 v -0.0997 l -125.3982,-0.54793 v 45.08794 h 19.2494 c 13.4365,0 15.8102,9.27546 15.8102,22.11376 l 0.1,79.71046 c 0,41.28464 36.2052,74.75077 80.8265,74.75077 h 110.1701 c 14.1239,0 26.4828,-8.94454 26.4828,-22.69089 z"
     fill="url(#e)"
     fill-rule="evenodd"
     id="path84"
     style="fill:#00aa44;stroke-width:2.49921" />
  <path
     d="m 142.938,500.531 c -10.7518,-7.40935 -18.3668,-15.9203 -24.7812,-27.1875 -12.6444,-23.3581 -9.68791,-34.9533 -41,-37.6875 -9.03629,0 -15.0512,-2 -24.5625,-2 v 3.3125 c 0,10e-6 3.75868,1.90749 7.0625,1.90749 4.9267,10e-6 5.78125,3.41765 5.78125,8.125 l 0.03125,29.155 c 0,15.1376 13.2952,27.4062 29.6562,27.4062 h 40.375 c 2.96358,0 5.62572,-1.16787 7.4375,-3.03125 z"
     fill="url(#c)"
     filter="url(#a)"
     opacity="0.175"
     transform="matrix(2.6204185,0,0,2.6204185,1370.9756,-671.16923)"
     id="path86"
     style="fill:url(#c)" />
  <path
     d="m 105.518,438.54 c -3.83671,0 -7.24574,1.42445 -9.98484,4.1914 -2.73772,2.76548 -4.1752,6.21796 -4.17519,10.1142 v 19.6947 h 8.93296 v -19.6947 c 0,-1.49338 0.48728,-2.66108 1.55355,-3.73818 1.06977,-1.08055 2.2026,-1.56971 3.67352,-1.56971 1.50175,0 2.61758,0.4867 3.68969,1.56971 1.06628,1.0771 1.55356,2.2448 1.55356,3.73818 v 19.6947 h 8.93297 v -19.6947 c 0,-1.49338 0.48728,-2.66108 1.55356,-3.73818 1.07211,-1.08301 2.18794,-1.56971 3.68971,-1.56971 1.47093,0 2.60373,0.48916 3.6735,1.56971 1.06627,1.0771 1.55356,2.2448 1.55356,3.73818 l 0.0486,23.0122 c 0,4.90894 -4.67486,9.04618 -10.6807,9.04618 l -28.8055,-0.11326 c -4.63471,0 -8.59313,-4.51117 -8.59313,-10.3085 v -43.3353 h -8.44746 v 45.0021 c 0,4.77471 1.74718,8.96178 5.14616,12.3476 2.90519,2.8676 6.39907,4.56445 10.3247,4.98427 v 0.16191 h 32.0745 c 4.92872,0 9.25884,-1.83265 12.7521,-5.38904 h 0.0162 c 2.97102,-3.05245 4.70787,-6.70998 5.12997,-10.8262 l -0.0324,-24.5819 c 0,-3.89625 -1.43744,-7.34873 -4.17521,-10.1142 -2.73906,-2.76695 -6.14812,-4.1914 -9.98482,-4.1914 -3.76604,0 -7.06133,1.40042 -9.72593,3.96479 -2.65681,-2.56014 -5.92908,-3.96479 -9.69356,-3.96479 z"
     fill-opacity="0.08"
     fill-rule="evenodd"
     filter="url(#b)"
     transform="matrix(2.6204185,0,0,2.6204185,1370.9756,-671.16923)"
     id="path88" />
  <path
     d="m 1645.6085,478.59086 c -10.0538,0 -18.9869,3.73264 -26.1645,10.98322 -7.174,7.24669 -10.9407,16.29365 -10.9407,26.50333 v 51.60813 h 23.4081 v -51.60813 c 0,-3.91325 1.2769,-6.97313 4.0709,-9.79558 2.8033,-2.83148 5.7718,-4.1133 9.6262,-4.1133 3.9352,0 6.8591,1.27537 9.6685,4.1133 2.7941,2.82245 4.071,5.88233 4.071,9.79558 v 51.60813 h 23.4081 v -51.60813 c 0,-3.91325 1.2769,-6.97313 4.071,-9.79558 2.8093,-2.83793 5.7333,-4.1133 9.6686,-4.1133 3.8544,0 6.8228,1.28182 9.626,4.1133 2.7941,2.82245 4.071,5.88233 4.071,9.79558 l 0.1272,60.30162 c 0,12.86346 -12.2501,23.70475 -27.9878,23.70475 l -75.4826,-0.29678 c -12.1449,0 -22.5176,-11.82115 -22.5176,-27.01268 V 459.21786 h -22.1358 v 117.92433 c 0,12.51173 4.5783,23.48359 13.4851,32.35598 7.6128,7.51429 16.7682,12.38521 27.0549,13.48532 l 84.0485,-2e-4 c 12.9153,0 24.2621,-4.8023 33.4159,-14.12152 h 0.043 c 7.7853,-7.99871 12.3366,-17.58295 13.4427,-28.36925 l -0.085,-64.41505 c 0,-10.20979 -3.7666,-19.25675 -10.9407,-26.50334 -7.1775,-7.25058 -16.1107,-10.98322 -26.1645,-10.98322 -9.8685,0 -18.5036,3.66969 -25.4859,10.3894 -6.9619,-6.70864 -15.5366,-10.3894 -25.4012,-10.3894 z"
     fill="#ffffff"
     fill-rule="evenodd"
     id="path90"
     style="stroke-width:2.49921" />
  <path
     d="m 1619.0794,669.78269 c -53.2084,0 -99.383,-40.33695 -99.383,-93.49783 l -0.048,-64.54852 V 495.2765 h -33.7338 v -82.01398 l 142.2559,0.66994 44.4999,0.0957 c 53.2561,0 99.3829,40.28896 99.3829,93.49732 v 162.25701 h -152.9739 z m 131.2983,-43.52544 V 507.52568 c 0,-39.66691 -34.7862,-71.82171 -77.707,-71.82171 h -44.5477 v -0.0957 l -120.4842,-0.52646 v 38.51878 h 13.4966 c 9.1631,0 20.1891,8.61094 20.1891,21.24721 l 0.096,81.38967 c 0,39.66692 34.7865,71.82171 77.6594,71.82171 h 105.8529 c 13.5704,0 25.4452,-8.59405 25.4452,-21.80175 z"
     fill="#ffffff"
     fill-rule="evenodd"
     id="path94"
     style="stroke-width:2.49921" />
  <text
     fill="#fff"
     font-family="Skia"
     font-size="19.756"
     font-weight="bold"
     transform="matrix(1.14834 0 0 .87082 -18.77 -2.12)"
     x="337.79"
     y="1011.98"
     id="text100"><tspan
       x="337.79"
       y="1011.98"
       id="tspan98">from freedom came elegance</tspan></text>
</svg>
